<svg id="Layer_1" data-name="Layer 1" xmlns="http://www.w3.org/2000/svg" viewBox="0 0 100 100"><defs><style>.cls-1{fill:#4acfe5;}</style></defs><title>seguridad</title><path class="cls-1" d="M50,13A19.79,19.79,0,0,1,69.75,32.83V45.59H76a3.51,3.51,0,0,1,3.5,3.51V81.65A3.51,3.51,0,0,1,76,85.16H24a3.51,3.51,0,0,1-3.5-3.51V49.1A3.51,3.51,0,0,1,24,45.59h6.25V32.83A19.79,19.79,0,0,1,50,13M34,45.59H66V32.83a16,16,0,1,0-32,0V45.59M50,10A22.77,22.77,0,0,0,27.25,32.83v9.76H24a6.51,6.51,0,0,0-6.5,6.51V81.65A6.5,6.5,0,0,0,24,88.16H76a6.51,6.51,0,0,0,6.5-6.51V49.1A6.5,6.5,0,0,0,76,42.59H72.75V32.83A22.77,22.77,0,0,0,50,10ZM37,42.59V32.83a13,13,0,1,1,26,0v9.76Z"/></svg>