<svg id="Layer_1" data-name="Layer 1" xmlns="http://www.w3.org/2000/svg" viewBox="0 0 100 100"><defs><style>.cls-1,.cls-2{fill:none;stroke:#4acfe5;stroke-miterlimit:10;stroke-width:3px;}.cls-2{stroke-linecap:round;}.cls-3{fill:#4acfe5;}</style></defs><title>administracion</title><line class="cls-1" x1="24.97" y1="74.9" x2="24.97" y2="51.96"/><line class="cls-1" x1="74.99" y1="51.96" x2="74.99" y2="74.9"/><path class="cls-2" d="M65.92,45.42C71.83,45.42,75,48.67,75,52c0,5.91-11.2,10.71-25,10.71S25,57.9,25,52c0-3.63,4-6.57,9.36-6.57"/><path class="cls-1" d="M75,63.43c0,6.44-11.19,11.66-25,11.66S25,69.87,25,63.43"/><path class="cls-1" d="M75,74.9c0,6.44-11.19,11.66-25,11.66S25,81.34,25,74.9"/><path class="cls-3" d="M50.08,31.47a8.14,8.14,0,1,0,5.76,2.38A8.09,8.09,0,0,0,50.08,31.47Zm0,14.92a6.78,6.78,0,1,1,6.78-6.78A6.78,6.78,0,0,1,50.08,46.4Z"/><path class="cls-3" d="M64.3,36.22H63a2,2,0,0,1-1.93-2,1.84,1.84,0,0,1,.64-1.39l.83-.81a2.08,2.08,0,0,0,0-3l-1.89-1.87a2.15,2.15,0,0,0-3,0l-.8.8a2,2,0,0,1-1.46.65,2,2,0,0,1-2-1.92V25.46a2.09,2.09,0,0,0-2-2.13H48.8a2.12,2.12,0,0,0-2.1,2.13v1.29a2,2,0,0,1-2,1.92A1.91,1.91,0,0,1,43.31,28l-.82-.81A2.09,2.09,0,0,0,41,26.64a2.14,2.14,0,0,0-1.48.59L37.63,29.1a2.09,2.09,0,0,0,0,3l.8.8a1.87,1.87,0,0,1,.66,1.42,2,2,0,0,1-1.93,2H35.86a2.12,2.12,0,0,0-2.14,2.09V40.9A2.14,2.14,0,0,0,35.86,43h1.29a2,2,0,0,1,1.93,2,1.9,1.9,0,0,1-.66,1.42l-.8.78a2.09,2.09,0,0,0,0,3L39.52,52a2.09,2.09,0,0,0,1.48.59A2.14,2.14,0,0,0,42.49,52l.82-.81a1.86,1.86,0,0,1,1.4-.63,2,2,0,0,1,2,1.92v1.29a2.13,2.13,0,0,0,2.09,2.13h2.58a2.14,2.14,0,0,0,2.11-2.13V52.49a2,2,0,0,1,3.41-1.27l.8.8a2.15,2.15,0,0,0,3,0l1.89-1.88a2.1,2.1,0,0,0,0-3l-.83-.81a1.9,1.9,0,0,1-.64-1.42,2,2,0,0,1,1.93-2H64.3a1.94,1.94,0,0,0,2-2V38.33A2,2,0,0,0,64.3,36.22Zm.64,3.39v1.28a.6.6,0,0,1-.62.67H63a3.26,3.26,0,0,0-2.33,1,3.37,3.37,0,0,0-1,2.36,3.2,3.2,0,0,0,1.06,2.39l.81.8a.75.75,0,0,1,0,1l-1.89,1.88a.79.79,0,0,1-.53.2.77.77,0,0,1-.53-.2l-.77-.77a3.3,3.3,0,0,0-4.75-.12,3.21,3.21,0,0,0-1,2.33v1.29a.79.79,0,0,1-.75.77H48.8a.77.77,0,0,1-.74-.77V52.49a3.23,3.23,0,0,0-1-2.33,3.37,3.37,0,0,0-2.34-.95,3.25,3.25,0,0,0-2.38,1.05l-.79.79a.79.79,0,0,1-.53.2.73.73,0,0,1-.52-.19h0L38.6,49.17a.74.74,0,0,1,0-1l.77-.76a3.27,3.27,0,0,0,.12-4.74,3.22,3.22,0,0,0-2.33-1h-1.3a.79.79,0,0,1-.78-.75V38.33a.79.79,0,0,1,.78-.75h1.29a3.22,3.22,0,0,0,2.33-1,3.32,3.32,0,0,0,1-2.33,3.24,3.24,0,0,0-1.08-2.41l-.78-.77a.72.72,0,0,1-.21-.52.73.73,0,0,1,.21-.52l1.88-1.87A.79.79,0,0,1,41,28a.73.73,0,0,1,.52.19h0l.8.8A3.22,3.22,0,0,0,44.72,30a3.35,3.35,0,0,0,2.34-.95,3.23,3.23,0,0,0,1-2.33V25.46a.77.77,0,0,1,.72-.77h2.59a.73.73,0,0,1,.68.77v1.29a3.26,3.26,0,0,0,1,2.33,3.39,3.39,0,0,0,2.36.95A3.31,3.31,0,0,0,57.84,29l.77-.77a.79.79,0,0,1,.53-.2.81.81,0,0,1,.53.2l1.89,1.87a.74.74,0,0,1,.22.52.73.73,0,0,1-.21.52l-.81.8a3.23,3.23,0,0,0-1.06,2.39,3.29,3.29,0,0,0,1,2.32,3.22,3.22,0,0,0,2.33,1H64.3c.46,0,.63.42.64.76v1.27Z"/></svg>