<svg id="Layer_1" data-name="Layer 1" xmlns="http://www.w3.org/2000/svg" viewBox="0 0 100 100"><defs><style>.cls-1{fill:#4acfe5;}</style></defs><title>camera</title><path class="cls-1" d="M76,34.38H24.14C23,34.38,23,35.3,23,36.67V59.53c0,1.37,0,2.29,1.14,2.29H41.29V75.53c0,2.51-3.2,4.57-5.72,4.57H29.86V77.82c0-1.37-2.06-2.29-3.43-2.29H23V89.25h3.43c1.37,0,3.43-.91,3.43-2.29V84.68h5.72c5,0,10.29-4.11,10.29-9.14V61.82H63a2.16,2.16,0,0,0,2.29-2.29h2.29c1.37,0,3.43-.91,3.43-2.29V43.53l6.17-6.63C78.32,35.76,78.09,34.38,76,34.38ZM27.57,87H25.29V77.82h2.29Zm0-29.72V39H68.72l-6.86,8V57.25Zm41.15,0H66.43V48.1l2.29-2.29Z"/><path class="cls-1" d="M42.43,45.82A4.57,4.57,0,1,0,47,50.39,4.59,4.59,0,0,0,42.43,45.82Zm0,6.86a2.29,2.29,0,1,1,2.29-2.29A2.16,2.16,0,0,1,42.43,52.67Z"/><path class="cls-1" d="M63.45,24.4a5,5,0,0,0-3.8,1.69c-.84,1-2.36-.34-1.52-1.35a7.16,7.16,0,0,1,10.63,0c.84,1-.68,2.36-1.52,1.35A5,5,0,0,0,63.45,24.4Zm0,7.09a2,2,0,1,1,2-2A2.05,2.05,0,0,1,63.45,31.49Zm0-12.15a9.74,9.74,0,0,0-7.09,2.87c-.84.84-2.45-.42-1.43-1.43a12.23,12.23,0,0,1,17,0c1,1-.59,2.28-1.43,1.43A9.74,9.74,0,0,0,63.45,19.34Zm0-5.06a14.92,14.92,0,0,0-10.3,4.05c-1,.93-2.45-.51-1.43-1.43a17.14,17.14,0,0,1,23.46,0c1,.93-.42,2.36-1.43,1.43A14.92,14.92,0,0,0,63.45,14.28Z"/></svg>