<svg id="Layer_1" data-name="Layer 1" xmlns="http://www.w3.org/2000/svg" viewBox="0 0 100 100"><defs><style>.cls-1{fill:none;stroke:#4acfe5;stroke-linecap:round;stroke-miterlimit:10;stroke-width:3px;}.cls-2{fill:#4acfe5;}</style></defs><title>convergente</title><path class="cls-1" d="M60.74,33.44C64.17,29.88,67.88,28,73,28a16.47,16.47,0,0,1,6.37,31.66"/><path class="cls-1" d="M38.75,78.72A16.47,16.47,0,1,1,22.28,51.36"/><line class="cls-1" x1="61.43" y1="32.75" x2="20.82" y2="73.36"/><polygon class="cls-2" points="19.17 57.66 22.17 57.76 21.63 72.54 36.41 72 36.52 75 18.51 75.66 19.17 57.66"/><line class="cls-1" x1="79.81" y1="37.63" x2="38.75" y2="78.72"/><polygon class="cls-2" points="64.1 35.99 64.21 38.99 78.99 38.45 78.46 53.23 81.46 53.34 82.11 35.33 64.1 35.99"/></svg>