<svg id="Layer_1" data-name="Layer 1" xmlns="http://www.w3.org/2000/svg" viewBox="0 0 100 100"><defs><style>.cls-1{fill:#4acfe5;}.cls-2{fill:none;stroke:#4acfe5;stroke-miterlimit:10;stroke-width:3px;}</style></defs><title>hibrida</title><g id="Icons_new_Arranged_Names" data-name="Icons new Arranged Names"><g id="_27_Cloud" data-name="27 Cloud"><path id="Rectangle_1_copy_2" data-name="Rectangle 1 copy 2" class="cls-1" d="M4.53,71.06a17.1,17.1,0,0,1,8.55-14.81A25.65,25.65,0,0,1,60.54,43.32a18.55,18.55,0,0,1,22.6,11.25,17.1,17.1,0,0,1-4.52,33.59h-57A17.1,17.1,0,0,1,4.53,71.06Zm74-11.4A12.82,12.82,0,0,0,57.82,51,20,20,0,0,0,19,60a11.4,11.4,0,0,0,2.59,22.5h57a11.4,11.4,0,0,0,0-22.8Z"/></g></g><polygon class="cls-2" points="38.5 50.16 24.11 75.09 52.89 75.09 38.5 50.16"/><circle class="cls-1" cx="38.5" cy="50" r="3.58"/><circle class="cls-1" cx="53.7" cy="75.09" r="3.58"/><circle class="cls-1" cx="23.37" cy="75.09" r="3.58"/></svg>