<svg id="Layer_1" data-name="Layer 1" xmlns="http://www.w3.org/2000/svg" viewBox="0 0 100 100"><defs><style>.cls-1{fill:#4acfe5;}</style></defs><title>proteccion</title><g id="Layer_1-2" data-name="Layer_1"><path class="cls-1" d="M77.23,29.44c0,.13,7.68,43.92-26.61,52.51A1,1,0,0,1,50,82h0C16.23,73.58,22.37,31,22.6,29.5a1,1,0,0,1,1.28-.86h0c12.67,3.74,24.4-9.29,25.24-10.25a1,1,0,0,1,1.56-.06h0S62.8,32.48,75.91,28.66l.17,0a1,1,0,0,1,1.15.82h0Zm-3.55,3.8c-6.12.8-12.2-1.36-17.38-4.77a45.54,45.54,0,0,1-6.37-5.11,46.53,46.53,0,0,1-6.85,5.32c-5.06,3.18-10.92,5.15-16.83,4.5A65.53,65.53,0,0,0,27.48,52.3C30.33,65,37.36,74.4,50.22,77.89,63,73.77,70,64.11,72.7,51.14a65.38,65.38,0,0,0,1-17.9Z"/></g><path id="Check" class="cls-1" d="M65.7,42.91a1.21,1.21,0,0,0-1.71,0l-17.09,17-7.51-7.41a1.21,1.21,0,0,0-1.71,0,1.19,1.19,0,0,0,0,1.69l8.37,8.25a1.23,1.23,0,0,0,1.71,0L65.7,44.6a1.19,1.19,0,0,0,0-1.69Z"/></svg>