<svg id="Layer_1" data-name="Layer 1" xmlns="http://www.w3.org/2000/svg" viewBox="0 0 100 100"><defs><style>.cls-1{fill:#4acfe5;}.cls-2{fill:none;stroke:#4acfe5;stroke-linecap:round;stroke-miterlimit:10;stroke-width:3px;}</style></defs><title>servidores</title><path class="cls-1" d="M68.13,31V81.16h-22V31h22m3-3h-28V84.16h28V28Z"/><path class="cls-1" d="M55.15,70a2.92,2.92,0,1,1-2.92,2.92A2.92,2.92,0,0,1,55.15,70m0-2a4.92,4.92,0,1,0,4.92,4.92A4.92,4.92,0,0,0,55.15,68Z"/><line class="cls-2" x1="48.19" y1="39.81" x2="62.11" y2="39.81"/><line class="cls-2" x1="48.19" y1="45.75" x2="62.11" y2="45.75"/><line class="cls-2" x1="48.19" y1="51.68" x2="62.11" y2="51.68"/><path class="cls-1" d="M88.56,36V77H71.13V36H88.56m3-3H68.13V80H91.56V33Z"/><path class="cls-1" d="M78.19,68.49a2.12,2.12,0,1,1-2.12,2.12,2.12,2.12,0,0,1,2.12-2.12m0-2a4.12,4.12,0,1,0,4.12,4.12,4.12,4.12,0,0,0-4.12-4.12Z"/><line class="cls-2" x1="72.36" y1="42.89" x2="84.02" y2="42.89"/><line class="cls-2" x1="72.36" y1="47.86" x2="84.02" y2="47.86"/><line class="cls-2" x1="72.36" y1="52.82" x2="84.02" y2="52.82"/><path class="cls-1" d="M43.13,25.37V85.16H11.67V25.37H43.13m3-3H8.67V88.16H46.13V22.37Z"/><path class="cls-1" d="M27.4,71.23A3.77,3.77,0,1,1,23.63,75a3.77,3.77,0,0,1,3.77-3.77m0-2A5.77,5.77,0,1,0,33.17,75a5.77,5.77,0,0,0-5.77-5.77Z"/><line class="cls-2" x1="19.24" y1="36.18" x2="35.56" y2="36.18"/><line class="cls-2" x1="19.24" y1="43.14" x2="35.56" y2="43.14"/><line class="cls-2" x1="19.24" y1="50.09" x2="35.56" y2="50.09"/></svg>