<svg id="Layer_1" data-name="Layer 1" xmlns="http://www.w3.org/2000/svg" viewBox="0 0 100 100"><defs><style>.cls-1{fill:#4acfe5;}.cls-2{fill:none;stroke:#4acfe5;stroke-linecap:round;stroke-miterlimit:10;stroke-width:3px;}</style></defs><title>transformacion</title><g id="_27_Cloud" data-name="27 Cloud"><path class="cls-1" d="M65.34,33.53a18.13,18.13,0,0,0-5.14.74A25.11,25.11,0,0,0,14,44a.85.85,0,0,0,.24.71L19.5,50s-.18-1.67-.18-2.53a19.53,19.53,0,0,1,38.22-5.65,12.54,12.54,0,0,1,19,4.24.7.7,0,0,0,1.13.18l2.6-2.6c.6-.6.67-1.14.42-1.55A18.09,18.09,0,0,0,65.34,33.53Z"/><path class="cls-1" d="M84.78,47l-3,3A.63.63,0,0,0,82,51a11.15,11.15,0,0,1,7,11.42A11.37,11.37,0,0,1,77.57,72.57H38.65a1.14,1.14,0,0,0-.81.33l-4.33,4.33a.54.54,0,0,0,.38.92h44A16.73,16.73,0,0,0,86,46.79,1,1,0,0,0,84.78,47Z"/><path class="cls-1" d="M22.1,72.57a11.15,11.15,0,0,1-7-19.84.63.63,0,0,0,.06-.94l-3-3a.74.74,0,0,0-1,0A16.69,16.69,0,0,0,5.41,62.53C6,71.41,13.69,78.15,22.58,78.15h.5l0,0,4.74-4.74a.48.48,0,0,0-.34-.82Z"/></g><path class="cls-2" d="M20.83,88.16S38.64,59.27,57.35,50"/><polygon class="cls-1" points="54.88 65.83 52.01 64.93 56.49 50.83 42.11 47.39 42.81 44.47 60.33 48.66 54.88 65.83"/></svg>