<svg id="Layer_1" data-name="Layer 1" xmlns="http://www.w3.org/2000/svg" viewBox="0 0 100 100"><defs><style>.cls-1,.cls-3,.cls-4{fill:none;stroke:#4acfe5;stroke-miterlimit:10;}.cls-1,.cls-4{stroke-linecap:round;}.cls-1{stroke-width:3px;}.cls-2{fill:#4acfe5;}.cls-4{stroke-width:4px;}</style></defs><title>admin-seg-migracion</title><path class="cls-1" d="M63.74,89.5c-.49.27-1,.53-1.49.78l-1.21.6L49.69,96.51l-12.2-6.16A40.69,40.69,0,0,1,15.12,54V3.5a78,78,0,0,0,69.76,0V53.82c0,.52,0,1,0,1.55,0,.85-.09,1.7-.18,2.54"/><g id="data"><path class="cls-2" d="M86.78,61.65A26.27,26.27,0,0,0,83.6,61a33.22,33.22,0,0,0-4.17-.26c-6.66,0-13.81,2-13.81,6.41V85.92c0,4.4,7.16,6.41,13.81,6.41s13.81-2,13.81-6.41V67.18C93.25,64.44,90.48,62.62,86.78,61.65Zm4.49,24.27c0,2.45-5.3,4.44-11.84,4.44s-11.84-2-11.84-4.44V82.24c2,2.1,7,3.19,11.84,3.19s9.8-1.09,11.84-3.19Zm0-5.89c0,2.43-5.3,4.41-11.84,4.41S67.6,82.47,67.6,80a.28.28,0,0,1,0,0h0V76.32c2,2.1,7,3.19,11.84,3.19s9.8-1.09,11.84-3.19Zm0-5.92c0,2.44-5.3,4.41-11.84,4.41s-11.84-2-11.84-4.41v0h0V70.7c2.59,2,7.33,2.89,11.84,2.89s9.25-.92,11.84-2.89Zm0-6.93c0,.85-.64,1.64-1.75,2.32-2.08,1.26-5.82,2.11-10.09,2.11-6.54,0-11.84-2-11.84-4.44s5.3-4.44,11.84-4.44a29.32,29.32,0,0,1,4.72.37,19,19,0,0,1,3.82,1c2,.78,3.23,1.82,3.29,3A.55.55,0,0,1,91.27,67.18Z"/><circle class="cls-2" cx="88.31" cy="86.42" r="0.99"/><circle class="cls-2" cx="88.31" cy="80.5" r="0.99"/><circle class="cls-2" cx="88.31" cy="74.58" r="0.99"/></g><g id="Icons_new_Arranged_Names" data-name="Icons new Arranged Names"><g id="_27_Cloud" data-name="27 Cloud"><path id="Rectangle_1_copy_2" data-name="Rectangle 1 copy 2" class="cls-2" d="M19.61,36.74a9.36,9.36,0,0,1,4.68-8.1,14,14,0,0,1,26-7.07,10.15,10.15,0,0,1,12.36,6.15A9.36,9.36,0,0,1,60.15,46.1H29A9.35,9.35,0,0,1,19.61,36.74ZM60.1,30.51a7,7,0,0,0-11.33-4.72,10.92,10.92,0,0,0-21.23,4.88A6.24,6.24,0,0,0,29,43H60.15a6.24,6.24,0,0,0,0-12.47Z"/></g></g><polygon class="cls-3" points="38.2 25.31 30.32 38.95 46.07 38.95 38.2 25.31"/><circle class="cls-2" cx="38.2" cy="25.22" r="1.96"/><circle class="cls-2" cx="46.52" cy="38.95" r="1.96"/><circle class="cls-2" cx="29.92" cy="38.95" r="1.96"/><path class="cls-4" d="M45,55.58V71.77a7.49,7.49,0,0,0,7.49,7.49H63"/><polygon class="cls-2" points="38.22 63.55 45 56.76 51.78 63.55 51.78 57.79 45 51.01 38.22 57.79 38.22 63.55"/></svg>