<svg id="Layer_1" data-name="Layer 1" xmlns="http://www.w3.org/2000/svg" viewBox="0 0 100 100"><defs><style>.cls-1,.cls-2,.cls-3{fill:none;stroke:#4acfe5;stroke-miterlimit:10;}.cls-2,.cls-3{stroke-linecap:round;}.cls-2{stroke-width:2px;}.cls-3{stroke-width:4px;}.cls-4{fill:#4acfe5;}</style></defs><title>admi-bases</title><rect class="cls-1" x="12.91" y="26.5" width="29.52" height="4.84"/><line class="cls-2" x1="12.91" y1="37.68" x2="33.17" y2="37.68"/><line class="cls-2" x1="12.91" y1="42.35" x2="37.7" y2="42.35"/><line class="cls-2" x1="12.91" y1="47.36" x2="25.7" y2="47.36"/><line class="cls-2" x1="12.91" y1="52.37" x2="27.61" y2="52.37"/><line class="cls-2" x1="12.91" y1="57.04" x2="30.9" y2="57.04"/><line class="cls-2" x1="12.91" y1="62.05" x2="22.19" y2="62.05"/><polyline class="cls-3" points="60.5 77.45 4.92 77.45 4.92 10.59 87.02 10.59 87.02 53.68"/><rect class="cls-4" x="12.91" y="15.31" width="46.48" height="6.11"/><g id="gear-tools-settings"><g id="_27" data-name="27"><path class="cls-4" d="M92,75.89l3.39-.4a.51.51,0,0,0,.44-.49V71.6a.51.51,0,0,0-.44-.49L92,70.71a12.44,12.44,0,0,0-1.77-4.26l2.12-2.69a.5.5,0,0,0,0-.66l-2.4-2.4a.51.51,0,0,0-.66,0l-2.68,2.11A12.52,12.52,0,0,0,82.27,61l-.4-3.39a.51.51,0,0,0-.49-.44H78a.51.51,0,0,0-.49.44L77.09,61a12.51,12.51,0,0,0-4.26,1.76l-2.68-2.11a.51.51,0,0,0-.66,0l-2.4,2.4a.51.51,0,0,0,0,.66l2.11,2.68a12.44,12.44,0,0,0-1.77,4.26l-3.39.4a.51.51,0,0,0-.44.49V75a.5.5,0,0,0,.44.49l3.39.4a12.44,12.44,0,0,0,1.77,4.26L67,82.83a.5.5,0,0,0,0,.66l2.4,2.4a.51.51,0,0,0,.66,0l2.68-2.12a12.42,12.42,0,0,0,4.26,1.77l.4,3.39a.51.51,0,0,0,.49.44h3.39a.51.51,0,0,0,.49-.44l.4-3.39A12.25,12.25,0,0,0,85,84.65L82.23,82a9.08,9.08,0,1,1,6.13-6.2l2.74,2.66A12.25,12.25,0,0,0,92,75.89Z"/><path class="cls-4" d="M95.33,84.58h0L86,75.49a6.72,6.72,0,0,0-8.59-8.21l2.22,2.13a1.3,1.3,0,0,1,0,1.83l-2.15,2.24a1.29,1.29,0,0,1-1.83,0l-2.22-2.14A6.72,6.72,0,0,0,82,79.61l9.35,9.07,0,0a2.8,2.8,0,0,0,3.95-.1A2.83,2.83,0,0,0,95.33,84.58Zm-.86,3.34a.92.92,0,0,1-1.3,0,.92.92,0,1,1,1.3,0Z"/></g></g><rect class="cls-4" x="70.17" y="10.59" width="16.85" height="45.06"/></svg>