<svg id="Layer_1" data-name="Layer 1" xmlns="http://www.w3.org/2000/svg" viewBox="0 0 100 100"><defs><style>.cls-1{fill:none;stroke:#4acfe5;stroke-miterlimit:10;stroke-width:2px;}.cls-2{fill:#4acfe5;}</style></defs><title>almacenamiento</title><line class="cls-1" x1="88.38" y1="11.62" x2="59" y2="41"/><polygon class="cls-2" points="77.91 10.52 77.98 12.52 87.84 12.16 87.48 22.01 89.48 22.09 89.92 10.08 77.91 10.52"/><line class="cls-1" x1="11.62" y1="11.62" x2="41.17" y2="41.17"/><polygon class="cls-2" points="10.52 22.09 12.52 22.02 12.16 12.16 22.01 12.52 22.09 10.52 10.08 10.09 10.52 22.09"/><line class="cls-1" x1="88.38" y1="88.38" x2="59" y2="59"/><polygon class="cls-2" points="89.48 77.91 87.48 77.98 87.84 87.84 77.99 87.48 77.91 89.48 89.92 89.92 89.48 77.91"/><line class="cls-1" x1="11.62" y1="88.38" x2="41.17" y2="58.83"/><polygon class="cls-2" points="22.09 89.48 22.02 87.48 12.16 87.84 12.52 77.99 10.52 77.91 10.09 89.92 22.09 89.48"/></svg>