<svg id="Layer_1" data-name="Layer 1" xmlns="http://www.w3.org/2000/svg" viewBox="0 0 100 100"><defs><style>.cls-1{fill:#4acfe5;}</style></defs><title>analisis-dato</title><g id="Layer_1-2" data-name="Layer_1"><path class="cls-1" d="M82.1,68.14l-.45.46A35.3,35.3,0,0,1,42.54,76a14.45,14.45,0,0,0,.9-5.06,14.25,14.25,0,0,0-.21-2.46,28.2,28.2,0,0,0,33.35-4.79l.08-.06.45-.46Z"/><path class="cls-1" d="M73.32,12.51l-3.54,6.11A28.26,28.26,0,0,0,39,21.67l-5-5a35.29,35.29,0,0,1,39.37-4.15Z"/><path class="cls-1" d="M66.1,57.76a1.18,1.18,0,1,1-2.35,0V29.53a1.18,1.18,0,0,1,1.17-1.18h8.24a1.18,1.18,0,0,1,1.18,1.18V57.76a1.18,1.18,0,1,1-2.36,0V30.7H66.11V57.76Z"/><path class="cls-1" d="M52,57.76V40.12a1.18,1.18,0,0,1,1.18-1.18h7.06a1.17,1.17,0,0,1,1.17,1.18V57.76a1.18,1.18,0,1,1-2.35,0V41.29h-4.7V57.76a1.18,1.18,0,0,1-2.36,0Z"/><path class="cls-1" d="M43.23,68.46a14.25,14.25,0,0,1,.21,2.46,14.45,14.45,0,0,1-.9,5.06A31.9,31.9,0,0,1,38.77,74a10.66,10.66,0,0,0,.47-3.12,10.49,10.49,0,0,0-2.74-7.08l.23-.23A28.4,28.4,0,0,0,43.23,68.46Z"/><path class="cls-1" d="M42.54,76a13.41,13.41,0,0,1-1,2.14,36.45,36.45,0,0,1-3.74-1.9,11,11,0,0,0,1-2.18A31.9,31.9,0,0,0,42.54,76Z"/><path class="cls-1" d="M40.22,58.94A1.18,1.18,0,0,1,39,57.76V48.35a1.17,1.17,0,0,1,1.18-1.17h8.23a1.17,1.17,0,0,1,1.18,1.17v9.41a1.18,1.18,0,1,1-2.35,0V49.53H41.39v8.23A1.17,1.17,0,0,1,40.22,58.94Z"/><path class="cls-1" d="M42.25,65.13A25.68,25.68,0,0,1,38.38,62h0a25.41,25.41,0,0,1-3.51-4.36A14.6,14.6,0,0,1,42.25,65.13Z"/><path class="cls-1" d="M37.8,76.22a36.45,36.45,0,0,0,3.74,1.9A14.68,14.68,0,0,1,21,83.39L11.35,93a3.3,3.3,0,0,1-4.7,0,3.34,3.34,0,0,1,0-4.72l9.63-9.62a14.69,14.69,0,0,1,5.58-20.74,34.81,34.81,0,0,0,1.81,3.8A10.49,10.49,0,1,0,37.8,76.22Z"/><path class="cls-1" d="M36.73,63.61l-.23.23a10.5,10.5,0,0,0-7.75-3.41,10.73,10.73,0,0,0-2.89.4A35.38,35.38,0,0,1,24,57a14.74,14.74,0,0,1,7.54-.51A27.76,27.76,0,0,0,36.73,63.61Z"/><path class="cls-1" d="M38.38,62a25.68,25.68,0,0,0,3.87,3.18,14.88,14.88,0,0,1,1,3.33,28.4,28.4,0,0,1-6.5-4.85,27.76,27.76,0,0,1-5.17-7.11,13.88,13.88,0,0,1,3.32,1.08,25.41,25.41,0,0,0,3.51,4.36Z"/><path class="cls-1" d="M24,57a35.38,35.38,0,0,0,1.84,3.82,10.54,10.54,0,0,0-2.19.91,34.81,34.81,0,0,1-1.81-3.8A14.35,14.35,0,0,1,24,57Z"/><path class="cls-1" d="M71.81,19.8a28.82,28.82,0,0,1,4.85,3.87,28.27,28.27,0,0,1,2,37.71l5,5a35.3,35.3,0,0,0-2-47.69,35.48,35.48,0,0,0-6.3-5ZM39,21.67a28.26,28.26,0,0,1,30.82-3.05l3.54-6.11a35.29,35.29,0,0,0-39.37,4.15Zm.66,2.52c-.43.38-.83.75-1.23,1.15a25.89,25.89,0,0,0-3.51,32.24,13.88,13.88,0,0,0-3.32-1.08c-.32-.61-.61-1.23-.89-1.87a28.24,28.24,0,0,1,6.06-30.95l.46-.45-5-5-.46.46A35.26,35.26,0,0,0,24,57a14.35,14.35,0,0,0-2.16.93A37.63,37.63,0,0,1,30.07,17c.43-.44.89-.87,1.35-1.28l0,0,0,0A37.63,37.63,0,1,1,41.54,78.12a13.41,13.41,0,0,0,1-2.14A35.3,35.3,0,0,0,81.65,68.6l.45-.46-5-5-.45.46-.08.06a28.2,28.2,0,0,1-33.35,4.79,14.88,14.88,0,0,0-1-3.33A25.9,25.9,0,0,0,74.94,62l.05-.07c.39-.38.77-.78,1.13-1.19v0l.11-.11a26.32,26.32,0,0,0,4.65-7.76A25.89,25.89,0,0,0,39.72,24.1l0,0Z"/></g></svg>