<svg id="Layer_1" data-name="Layer 1" xmlns="http://www.w3.org/2000/svg" viewBox="0 0 100 100"><defs><style>.cls-1{fill:#4acfe5;}.cls-2{fill:none;stroke:#4acfe5;stroke-linecap:round;stroke-miterlimit:10;stroke-width:3px;}</style></defs><title>consolidacion</title><path class="cls-1" d="M50.69,84.93a34.93,34.93,0,0,1-4.17-69.6V8.54C25.28,10.21,9,28.12,9,49.79A41.79,41.79,0,0,0,50.69,91.46,42.22,42.22,0,0,0,84.44,74.37L78.6,71A34.87,34.87,0,0,1,50.69,84.93ZM54.86,8.54v6.79A34.93,34.93,0,0,1,83,63.23l5.59,3.22a38.1,38.1,0,0,0,3.75-17.08A41.17,41.17,0,0,0,54.86,8.54Z"/><polyline class="cls-2" points="59.58 61.89 30.45 61.89 30.45 38.12 59.58 38.12"/><line class="cls-2" x1="37.73" y1="50" x2="71.44" y2="50"/><polygon class="cls-1" points="65.47 55.09 70.55 50 65.47 44.91 69.78 44.91 74.87 50 69.78 55.09 65.47 55.09"/></svg>