<svg id="Layer_1" data-name="Layer 1" xmlns="http://www.w3.org/2000/svg" viewBox="0 0 100 100"><defs><style>.cls-1,.cls-2,.cls-3{fill:none;stroke:#4acfe5;stroke-miterlimit:10;}.cls-2,.cls-3{stroke-linecap:round;}.cls-2{stroke-width:2px;}.cls-3{stroke-width:4px;}.cls-4{fill:#4acfe5;}</style></defs><title>desarrollo-bases</title><rect class="cls-1" x="18.73" y="48.91" width="29.63" height="4.86"/><line class="cls-2" x1="18.73" y1="60.14" x2="39.06" y2="60.14"/><line class="cls-2" x1="18.73" y1="64.83" x2="43.62" y2="64.83"/><line class="cls-2" x1="18.73" y1="69.86" x2="31.57" y2="69.86"/><line class="cls-2" x1="18.73" y1="74.88" x2="33.48" y2="74.88"/><line class="cls-2" x1="18.73" y1="79.57" x2="36.79" y2="79.57"/><line class="cls-2" x1="18.73" y1="84.6" x2="28.04" y2="84.6"/><polyline class="cls-3" points="93.12 68.15 93.12 24.89 36.58 24.89 32.66 24.89"/><polyline class="cls-3" points="85.48 92 10.71 92 10.67 44.33 10.67 40.41"/><rect class="cls-4" x="18.73" y="37.68" width="46.66" height="6.13"/><rect class="cls-4" x="76.2" y="24.9" width="18.96" height="69.02"/><path class="cls-4" d="M34.93,7.16,32,4.26a1.54,1.54,0,0,0-2.17,0L27.53,6.58l5.08,5.07,2.32-2.32A1.53,1.53,0,0,0,34.93,7.16Z"/><polygon class="cls-4" points="12.46 21.63 17.53 26.7 31.52 12.73 26.45 7.66 12.46 21.63"/><polygon class="cls-4" points="11.36 22.71 10.27 28.86 16.44 27.78 11.36 22.71"/><path class="cls-4" d="M25.4,31.6H6.25V12.45H19.76l3.33-3.32h-18a2.16,2.16,0,0,0-2.15,2.15v21.5a2.16,2.16,0,0,0,2.15,2.15h21.5a2.16,2.16,0,0,0,2.15-2.15V17.41L25.4,20.72Z"/></svg>