<svg id="Layer_1" data-name="Layer 1" xmlns="http://www.w3.org/2000/svg" viewBox="0 0 100 100"><defs><style>.cls-1{fill:none;stroke:#4acfe5;stroke-miterlimit:10;}.cls-2{fill:#4acfe5;}</style></defs><title>DevOps</title><g id="row_4" data-name="row 4"><g id="cloud"><rect class="cls-1" x="50.44" y="90.4" width="20.56" height="1.96"/><rect class="cls-1" x="20.09" y="90.4" width="20.56" height="1.96"/><rect class="cls-1" x="44.57" y="76.69" width="1.96" height="12.73"/><path class="cls-2" d="M49.46,94.31H41.63a2,2,0,0,1-2-2v-2a2,2,0,0,1,2-2h7.83a2,2,0,0,1,2,2v2A2,2,0,0,1,49.46,94.31Z"/></g></g><path class="cls-2" d="M68.27,26.39A3,3,0,0,0,74,27.76h0l5.52-10-9.69,5.94h0A3,3,0,0,0,68.27,26.39Z"/><path class="cls-2" d="M83.48,12A19.22,19.22,0,0,0,71.8,7.28v4.6a13,13,0,0,1,8.31,3.34Z"/><path class="cls-2" d="M85.63,25h4.59a18.49,18.49,0,0,0-4.88-11.42L82.1,16.77A14.67,14.67,0,0,1,85.63,25Z"/><path class="cls-2" d="M56.33,26.37A13.88,13.88,0,0,0,57,30.61a14,14,0,0,0,1.86,3.83,29.65,29.65,0,0,0-6-1.56A18.28,18.28,0,0,1,52,29.65a18.47,18.47,0,0,1-.29-3.26A19.05,19.05,0,0,1,69.51,7.28v4.6A14.85,14.85,0,0,0,56.33,26.37Z"/><path class="cls-2" d="M90.26,27.24A19.46,19.46,0,0,1,71,45.49a19.38,19.38,0,0,1-9.75-2.64C63,41.79,64,40.56,64,39.23a.86.86,0,0,0,0-.16,14.48,14.48,0,0,0,3.09,1.28,14.82,14.82,0,0,0,4.07.57A14.59,14.59,0,0,0,85.66,27.24Z"/><g id="data"><path class="cls-2" d="M57,30.61a40.93,40.93,0,0,0-5-1,51.75,51.75,0,0,0-6.49-.41c-10.37,0-21.52,3.12-21.52,10v29.2c0,6.86,11.15,10,21.52,10s21.52-3.13,21.52-10V39.23C67.07,35,62.75,32.13,57,30.61Zm7,37.82c0,3.82-8.26,6.92-18.44,6.92S27.1,72.25,27.1,68.43V62.69c3.18,3.27,10.84,5,18.45,5S60.82,66,64,62.69Zm0-9.17c0,3.79-8.26,6.87-18.44,6.87S27.1,63,27.1,59.26a.43.43,0,0,1,0,0h0V53.47c3.18,3.27,10.84,5,18.45,5s15.27-1.7,18.44-5ZM64,50c0,3.8-8.26,6.87-18.44,6.87S27.1,53.83,27.1,50c0,0,0,0,0,0h0V44.71c4,3.07,11.42,4.51,18.45,4.51S60,47.78,64,44.71Zm0-10.8c0,1.33-1,2.56-2.72,3.62-3.24,2-9.07,3.29-15.72,3.29C35.36,46.14,27.1,43,27.1,39.23s8.26-6.92,18.45-6.92a45.69,45.69,0,0,1,7.35.57,29.65,29.65,0,0,1,6,1.56c3.1,1.21,5,2.83,5.13,4.63A.86.86,0,0,1,64,39.23Z"/><circle class="cls-2" cx="59.38" cy="69.2" r="1.54"/><circle class="cls-2" cx="59.38" cy="59.98" r="1.54"/><circle class="cls-2" cx="59.38" cy="50.76" r="1.54"/></g></svg>