<svg id="Layer_1" data-name="Layer 1" xmlns="http://www.w3.org/2000/svg" viewBox="0 0 100 100"><defs><style>.cls-1{fill:#4acfe5;}.cls-2,.cls-3{fill:none;stroke:#4acfe5;stroke-linecap:round;stroke-miterlimit:10;}.cls-2{stroke-width:2px;}</style></defs><title>disp-integrados</title><path id="path8" class="cls-1" d="M48.52,65.86a22.67,22.67,0,0,1-7.3-6.56c-4-5.43-5.24-12.15-5.08-18.75v-.09l0-.1a2.84,2.84,0,0,1,2.48-2.6,22.1,22.1,0,0,0,4.73-1.19,34.87,34.87,0,0,0,5.21-2.44,2.79,2.79,0,0,1,2.83,0,35.21,35.21,0,0,0,5.24,2.44,21.18,21.18,0,0,0,4.73,1.19,2.9,2.9,0,0,1,2.48,2.8c.13,6.59-1.13,13.31-5.08,18.75a23.36,23.36,0,0,1-7.3,6.56,2.87,2.87,0,0,1-3,0ZM61.74,40.58a.73.73,0,0,0-.64-.74,26.52,26.52,0,0,1-5.18-1.29A37.86,37.86,0,0,1,50.39,36a.82.82,0,0,0-.77,0,36.33,36.33,0,0,1-5.53,2.6,26.23,26.23,0,0,1-5.15,1.29.79.79,0,0,0-.67.74Q38,51.24,42.93,58a20.61,20.61,0,0,0,6.69,6,.68.68,0,0,0,.77,0,21.36,21.36,0,0,0,6.69-6q4.92-6.8,4.66-17.46Z"/><circle class="cls-2" cx="50" cy="11.75" r="5.75"/><circle class="cls-2" cx="88.95" cy="50" r="5.75"/><circle class="cls-2" cx="80.1" cy="24.57" r="4.07"/><circle class="cls-2" cx="23.26" cy="24.57" r="4.07"/><circle class="cls-2" cx="80.1" cy="76.45" r="4.07"/><circle class="cls-2" cx="23.26" cy="76.45" r="4.07"/><circle class="cls-2" cx="11.05" cy="50" r="5.75"/><circle class="cls-2" cx="50" cy="87.77" r="5.75"/><polyline class="cls-3" points="63.19 50 64.52 50 83.2 50"/><polyline class="cls-3" points="60.32 56.67 61.5 57.85 74.49 70.84"/><polyline class="cls-3" points="50 67.85 50 68.26 50 82.02"/><line class="cls-3" x1="39.71" y1="60" x2="29.44" y2="70.27"/><line class="cls-3" x1="35.08" y1="50" x2="16.8" y2="50"/><polyline class="cls-3" points="36.18 37.48 35.64 36.94 28.68 29.99"/><polyline class="cls-3" points="50 32.75 50 31.74 50 17.5"/><polyline class="cls-3" points="64.21 40.46 65.54 39.13 73.92 30.75"/></svg>