<svg id="Layer_1" data-name="Layer 1" xmlns="http://www.w3.org/2000/svg" viewBox="0 0 100 100"><defs><style>.cls-1,.cls-3{fill:none;stroke:#4acfe5;stroke-miterlimit:10;}.cls-1{stroke-linecap:round;stroke-width:2.64px;}.cls-2{fill:#4acfe5;}.cls-3{stroke-width:4px;}</style></defs><title>informes</title><line class="cls-1" x1="23.56" y1="25.4" x2="50.41" y2="25.4"/><line class="cls-1" x1="23.56" y1="31.59" x2="56.42" y2="31.59"/><line class="cls-1" x1="23.56" y1="38.22" x2="40.51" y2="38.22"/><line class="cls-1" x1="23.56" y1="44.86" x2="43.04" y2="44.86"/><line class="cls-1" x1="23.56" y1="51.05" x2="47.4" y2="51.05"/><line class="cls-1" x1="23.56" y1="57.69" x2="35.86" y2="57.69"/><path class="cls-2" d="M95.63,9.36,91.86,5.6A2,2,0,0,0,89,5.6l-3,3,6.6,6.59,3-3A2,2,0,0,0,95.63,9.36Z"/><polygon class="cls-2" points="66.42 28.16 73.02 34.75 91.2 16.61 84.6 10.02 66.42 28.16"/><polygon class="cls-2" points="64.99 29.57 63.58 37.57 71.59 36.16 64.99 29.57"/><rect class="cls-3" x="14" y="8.82" width="63.76" height="82.86"/><path id="Check" class="cls-2" d="M71.41,65.34a1.21,1.21,0,0,0-1.71,0l-17.09,17L45.1,74.91a1.21,1.21,0,0,0-1.71,0,1.19,1.19,0,0,0,0,1.69l8.37,8.25a1.23,1.23,0,0,0,1.71,0L71.41,67a1.19,1.19,0,0,0,0-1.69Z"/></svg>