<svg id="Layer_1" data-name="Layer 1" xmlns="http://www.w3.org/2000/svg" viewBox="0 0 100 100"><defs><style>.cls-1{fill:#4acfe5;}.cls-2{fill:none;stroke:#4acfe5;stroke-miterlimit:10;stroke-width:0.89px;}</style></defs><title>intrusiones</title><path id="path8" class="cls-1" d="M46.74,85A50,50,0,0,1,30.65,70.5c-8.73-12-11.56-26.8-11.21-41.34V29l.07-.21A6.29,6.29,0,0,1,25,23,48.32,48.32,0,0,0,35.4,20.37,76.44,76.44,0,0,0,46.88,15a6.14,6.14,0,0,1,6.25,0,77.21,77.21,0,0,0,11.55,5.39A46.35,46.35,0,0,0,75.11,23a6.39,6.39,0,0,1,5.46,6.17c.28,14.54-2.48,29.36-11.21,41.34A51.5,51.5,0,0,1,53.27,85a6.37,6.37,0,0,1-6.53,0ZM75.89,29.23a1.62,1.62,0,0,0-1.42-1.63,59.22,59.22,0,0,1-11.42-2.83A84,84,0,0,1,50.86,19a1.85,1.85,0,0,0-1.71,0A80.26,80.26,0,0,1,37,24.77,58.55,58.55,0,0,1,25.61,27.6a1.74,1.74,0,0,0-1.49,1.63Q23.6,52.74,34.4,67.74A45.65,45.65,0,0,0,49.15,80.93a1.52,1.52,0,0,0,1.71,0A47.32,47.32,0,0,0,65.61,67.74q10.85-15,10.28-38.51Z"/><path id="path12" class="cls-2" d="M62.7,47.84A12.72,12.72,0,0,0,50.81,36H49.1A12.7,12.7,0,0,0,37.31,47.84h-.1v1.71h.1A12.77,12.77,0,0,0,49.1,61.44h1.71A12.79,12.79,0,0,0,62.7,49.55h.1V47.84ZM45.27,38.67a12.49,12.49,0,0,0-2,4H40.64A11.34,11.34,0,0,1,45.27,38.67Zm-5.44,5.75h2.92c-.2,1.1-.3,2.21-.4,3.42H39A8.14,8.14,0,0,1,39.83,44.42ZM39,49.55h3.33c.1,1.11.2,2.32.4,3.33H39.83A7.44,7.44,0,0,1,39,49.55Zm1.62,5h2.62a11.55,11.55,0,0,0,2,4A10.66,10.66,0,0,1,40.64,54.59Zm8.46,5c-1.71-.5-3.23-2.32-4.13-5H49.1Zm0-6.75H44.46a30.42,30.42,0,0,1-.4-3.33h5v3.33Zm0-5h-5a32.34,32.34,0,0,1,.41-3.42H49.1v3.42Zm0-5.14H45c.9-2.62,2.42-4.53,4.13-4.93Zm10.17,0H56.76a15.2,15.2,0,0,0-2-4A11,11,0,0,1,59.27,42.7Zm-8.46-4.93c1.82.4,3.33,2.31,4.23,4.93H50.81Zm0,6.65h4.64a18.66,18.66,0,0,1,.5,3.42H50.81V44.42Zm0,5.13H56a16.63,16.63,0,0,1-.5,3.33H50.81V49.55Zm0,10.08v-5H55C54.14,57.31,52.63,59.13,50.81,59.63Zm3.93-1a13.82,13.82,0,0,0,2-4h2.52A10.43,10.43,0,0,1,54.74,58.62Zm5.44-5.74H57.26c.2-1,.3-2.22.4-3.33H61a8.86,8.86,0,0,1-.81,3.33Zm-2.52-5c-.1-1.21-.2-2.32-.4-3.42h2.92A9.78,9.78,0,0,1,61,47.84Z"/></svg>