<svg id="Layer_1" data-name="Layer 1" xmlns="http://www.w3.org/2000/svg" viewBox="0 0 100 100"><defs><style>.cls-1{fill:#4acfe5;}.cls-2{fill:none;stroke:#4acfe5;stroke-linecap:round;stroke-miterlimit:10;stroke-width:4px;}</style></defs><title>mailLock</title><path class="cls-1" d="M63.5,47.46A14.92,14.92,0,0,0,63.72,45a13.73,13.73,0,1,0-27.44,0,14.92,14.92,0,0,0,.22,2.51,4.27,4.27,0,0,0-2,3.61V64.89a4.29,4.29,0,0,0,4.28,4.29H61.2a4.29,4.29,0,0,0,4.28-4.29h0V51.07A4.27,4.27,0,0,0,63.5,47.46ZM51.89,59.53v3a1.89,1.89,0,0,1-3.78,0v-3a3.93,3.93,0,1,1,3.78,0ZM58.5,46.78h-17A10,10,0,0,1,41.32,45a8.69,8.69,0,1,1,17.36,0A10,10,0,0,1,58.5,46.78Z"/><path class="cls-2" d="M37.75,46.33C28.4,39.63,14.17,28.8,14.17,28.8V26.14a6,6,0,0,1,6-6H79.86a6,6,0,0,1,6,6l0,3S72.1,39.58,62.5,46.33m2.58,7L85.79,38.07l0,35.79a6,6,0,0,1-6,6H20.14a6,6,0,0,1-6-6l0-35.79S26.33,47.42,35.33,54"/></svg>