<svg id="Layer_1" data-name="Layer 1" xmlns="http://www.w3.org/2000/svg" viewBox="0 0 100 100"><defs><style>.cls-1{fill:none;stroke:#4acfe5;stroke-linecap:round;stroke-miterlimit:10;stroke-width:4px;}.cls-2{fill:#4acfe5;}</style></defs><title>migracion-nube</title><path class="cls-1" d="M40.92,16.73A20.32,20.32,0,0,1,77,16.28"/><line class="cls-1" x1="38.86" y1="23.91" x2="38.86" y2="23.9"/><path class="cls-1" d="M56.79,40.72v9.41a4.17,4.17,0,0,1-4.17,4.17H47.28A16.51,16.51,0,0,1,30.64,38.46a16.25,16.25,0,0,1,8.22-14.55h0"/><polygon class="cls-2" points="50.01 48.69 56.79 41.9 63.57 48.69 63.57 42.93 56.79 36.15 50.01 42.93 50.01 48.69"/><path class="cls-1" d="M63.64,63.34V57.9a3.6,3.6,0,0,1,3.6-3.6H79A16.52,16.52,0,0,0,95.66,38.62,16.25,16.25,0,0,0,79.41,21.77l-.4,0"/><g id="data"><path class="cls-2" d="M30.57,58.78a33.18,33.18,0,0,0-4-.78,42,42,0,0,0-5.26-.33c-8.41,0-17.44,2.53-17.44,8.1V89.44c0,5.56,9,8.1,17.44,8.1S38.74,95,38.74,89.44V65.77C38.74,62.31,35.24,60,30.57,58.78Zm5.67,30.66c0,3.1-6.7,5.61-14.95,5.61s-15-2.51-15-5.61V84.79c2.58,2.65,8.79,4,15,4s12.38-1.38,14.95-4Zm0-7.43c0,3.07-6.7,5.57-14.95,5.57s-15-2.5-15-5.57a.35.35,0,0,1,0,0h0V77.31c2.58,2.65,8.79,4,15,4s12.38-1.38,14.95-4Zm0-7.48c0,3.08-6.7,5.57-14.95,5.57s-15-2.49-15-5.57v0h0V70.21c3.27,2.49,9.26,3.66,15,3.66S33,72.7,36.24,70.21Zm0-8.75c0,1.08-.8,2.08-2.2,2.93-2.63,1.6-7.35,2.67-12.74,2.67-8.26,0-15-2.5-15-5.6s6.7-5.61,15-5.61a37,37,0,0,1,6,.46,24,24,0,0,1,4.82,1.26c2.51,1,4.08,2.29,4.16,3.75A.7.7,0,0,1,36.24,65.77Z"/><circle class="cls-2" cx="32.51" cy="90.06" r="1.25"/><circle class="cls-2" cx="32.51" cy="82.59" r="1.25"/><circle class="cls-2" cx="32.51" cy="75.11" r="1.25"/></g><path class="cls-1" d="M41.83,89.34h16.3c2.87,0,5.2-2.67,5.2-6.87V71.33"/><polygon class="cls-2" points="70.11 79.3 63.33 72.51 56.55 79.3 56.55 73.54 63.33 66.76 70.11 73.54 70.11 79.3"/></svg>