<svg id="Layer_1" data-name="Layer 1" xmlns="http://www.w3.org/2000/svg" viewBox="0 0 100 100"><defs><style>.cls-1{isolation:isolate;}.cls-2{fill:#1b4a53;}.cls-3{fill:#225e68;}.cls-4{fill:#33909f;}.cls-5{fill:#42b7cb;}.cls-6{fill:#29727e;}.cls-7{fill:#2b7885;}</style></defs><title>objetos</title><g class="cls-1"><polygon class="cls-2" points="69.66 46.67 49.49 40.04 49.2 13.21 69.36 19.85 69.66 46.67"/><polygon class="cls-3" points="47.66 51.36 27.5 44.73 49.49 40.04 69.66 46.67 47.66 51.36"/><polygon class="cls-4" points="47.37 24.54 27.21 17.9 49.2 13.21 69.36 19.85 47.37 24.54"/><polygon class="cls-5" points="69.36 19.85 69.66 46.67 47.66 51.36 47.37 24.54 69.36 19.85"/><polygon class="cls-6" points="47.66 51.36 27.5 44.73 27.21 17.9 47.37 24.54 47.66 51.36"/><polygon class="cls-2" points="47.38 51.78 27.21 45.15 26.91 17.61 47.07 24.25 47.38 51.78"/><polygon class="cls-3" points="47.07 24.25 26.91 17.61 49.48 12.81 69.64 19.44 47.07 24.25"/><path class="cls-7" d="M47.07,24.25l22.57-4.81L69.95,47,47.38,51.78ZM69.66,46.67l-.29-26.83-22,4.69.29,26.83,22-4.69"/></g><g class="cls-1"><polygon class="cls-2" points="93.57 82.09 73.41 75.46 73.11 48.64 93.28 55.27 93.57 82.09"/><polygon class="cls-3" points="71.58 86.78 51.42 80.14 73.41 75.46 93.57 82.09 71.58 86.78"/><polygon class="cls-4" points="71.28 59.96 51.12 53.33 73.11 48.64 93.28 55.27 71.28 59.96"/><polygon class="cls-6" points="71.58 86.78 51.42 80.14 51.12 53.33 71.28 59.96 71.58 86.78"/><path class="cls-7" d="M71,59.66l22.57-4.81.3,27.53L71.3,87.19ZM93.57,82.09l-.29-26.82L71.28,60l.29,26.82,22-4.69"/><polygon class="cls-5" points="93.28 55.27 93.57 82.09 71.58 86.78 71.28 59.96 93.28 55.27"/><polygon class="cls-2" points="71.3 87.19 51.14 80.56 50.83 53.03 71 59.66 71.3 87.19"/><polygon class="cls-3" points="71 59.66 50.83 53.03 73.4 48.22 93.56 54.86 71 59.66"/></g><g class="cls-1"><polygon class="cls-2" points="48.88 82.09 28.71 75.46 28.42 48.64 48.58 55.27 48.88 82.09"/><polygon class="cls-3" points="26.88 86.78 6.72 80.14 28.71 75.46 48.88 82.09 26.88 86.78"/><polygon class="cls-4" points="26.59 59.96 6.43 53.32 28.42 48.64 48.58 55.27 26.59 59.96"/><polygon class="cls-5" points="48.58 55.27 48.88 82.09 26.88 86.78 26.59 59.96 48.58 55.27"/><polygon class="cls-6" points="26.88 86.78 6.72 80.14 6.43 53.32 26.59 59.96 26.88 86.78"/><polygon class="cls-2" points="26.6 87.19 6.43 80.56 6.13 53.03 26.29 59.66 26.6 87.19"/><polygon class="cls-3" points="26.29 59.66 6.13 53.03 28.7 48.22 48.86 54.86 26.29 59.66"/><path class="cls-7" d="M26.29,59.66l22.57-4.81.3,27.53L26.6,87.19ZM48.88,82.09l-.29-26.82L26.59,60l.29,26.82,22-4.69"/></g></svg>