<svg id="Layer_1" data-name="Layer 1" xmlns="http://www.w3.org/2000/svg" viewBox="0 0 100 100"><defs><style>.cls-1{fill:#4acfe5;}</style></defs><title>phoneLock</title><g id="Livello_12" data-name="Livello 12"><path class="cls-1" d="M67.24,78.28H32.76V22.38H67.24ZM47.32,84a2.76,2.76,0,1,1,2.75,2.78A2.76,2.76,0,0,1,47.32,84m22.24,2.53h0v-67h0a2.78,2.78,0,0,0-2.78-2.77H33.22a2.78,2.78,0,0,0-2.78,2.77h0v67h0v.09a2.77,2.77,0,0,0,2.81,2.72H66.82a2.73,2.73,0,0,0,2.74-2.72v-.08"/></g><path class="cls-1" d="M56.9,59.42H44.07a1.6,1.6,0,0,1-1.6-1.61v-8a1.6,1.6,0,0,1,1.6-1.6h.8V45.77a5.62,5.62,0,1,1,11.23,0v2.41h.8a1.6,1.6,0,0,1,1.6,1.6v8A1.61,1.61,0,0,1,56.9,59.42ZM53.69,45.77a3.21,3.21,0,1,0-6.41,0v2.41h6.41Z"/></svg>