<svg id="Layer_1" data-name="Layer 1" xmlns="http://www.w3.org/2000/svg" viewBox="0 0 100 100"><defs><style>.cls-1,.cls-2,.cls-3{fill:none;stroke:#4acfe5;stroke-miterlimit:10;}.cls-2,.cls-3{stroke-linecap:round;}.cls-2{stroke-width:2px;}.cls-3{stroke-width:4px;}.cls-4{fill:#4acfe5;}</style></defs><title>rendimiento-bases</title><path class="cls-1" d="M16.24,41H35.3a0,0,0,0,1,0,0v0a4.84,4.84,0,0,1-4.84,4.84H16.24a0,0,0,0,1,0,0V41A0,0,0,0,1,16.24,41Z"/><line class="cls-2" x1="16.24" y1="52.18" x2="26.6" y2="52.18"/><line class="cls-2" x1="16.24" y1="56.85" x2="26.6" y2="56.85"/><line class="cls-2" x1="16.24" y1="61.86" x2="26.79" y2="61.86"/><line class="cls-2" x1="16.24" y1="66.87" x2="30.94" y2="66.87"/><line class="cls-2" x1="16.24" y1="71.54" x2="34.23" y2="71.54"/><line class="cls-2" x1="16.24" y1="76.55" x2="37.17" y2="76.55"/><polyline class="cls-3" points="68.67 91.95 8.25 91.95 8.25 25.09 90.35 25.09 90.35 68.18"/><rect class="cls-4" x="16.24" y="29.81" width="46.48" height="6.11"/><rect class="cls-4" x="73.5" y="25.09" width="18.76" height="68.75"/><g id="magnifier-data"><g id="_36" data-name="36"><path class="cls-4" d="M65.13,81.58,55.82,71.11l-.43.36-1.05-1.08a18.31,18.31,0,1,0-1.59,1.29l-.15.12L53.45,73l-.44.36,8.4,11.21a2.4,2.4,0,0,0,3.72-3ZM41.67,71A13.95,13.95,0,1,1,56.1,57.53,14,14,0,0,1,41.67,71Z"/><path class="cls-4" d="M33.52,46.11c-.24.19-.47.39-.7.59A1.73,1.73,0,0,0,33.52,46.11Z"/><path class="cls-4" d="M37.36,44c-.28.1-.55.22-.82.34v2.57h.82Z"/><path class="cls-4" d="M42.63,43.1h-.29A1.73,1.73,0,0,1,43,44.7c0,1.1-.42,1.79-1.29,1.79s-1.28-.63-1.28-1.75a1.82,1.82,0,0,1,.65-1.59c-.35,0-.7.07-1,.12a2.32,2.32,0,0,0-.46,1.46,2.14,2.14,0,1,0,4.27-.06,2.31,2.31,0,0,0-.47-1.5C43.13,43.15,42.89,43.11,42.63,43.1Z"/><path class="cls-4" d="M46.63,46.94a2,2,0,0,0,2.18-2.13c-.28-.15-.56-.31-.86-.44,0,.11,0,.22,0,.33,0,1.1-.42,1.79-1.29,1.79s-1.28-.63-1.28-1.75a2.35,2.35,0,0,1,.27-1.18l-.77-.17a2.43,2.43,0,0,0-.36,1.34A2,2,0,0,0,46.63,46.94Z"/><path class="cls-4" d="M51.46,46.67v.19h.2Z"/><path class="cls-4" d="M31.82,50.43a2.06,2.06,0,0,0-2.19,2.23,2.14,2.14,0,1,0,4.28-.06A1.94,1.94,0,0,0,31.82,50.43Zm-.06,4c-.77,0-1.28-.63-1.28-1.75s.54-1.79,1.29-1.79,1.28.69,1.28,1.75S32.63,54.42,31.76,54.42Z"/><path class="cls-4" d="M36.79,50.43a2.06,2.06,0,0,0-2.19,2.23,2.14,2.14,0,1,0,4.28-.06A1.94,1.94,0,0,0,36.79,50.43Zm-.06,4c-.77,0-1.28-.63-1.28-1.75s.54-1.79,1.29-1.79S38,51.58,38,52.63,37.61,54.42,36.73,54.42Z"/><polygon class="cls-4" points="42.34 54.8 42.34 50.51 41.61 50.51 40.23 51.01 40.4 51.45 41.5 51.05 41.52 51.05 41.52 54.8 42.34 54.8"/><path class="cls-4" d="M46.74,50.43a2.06,2.06,0,0,0-2.19,2.23,2.14,2.14,0,1,0,4.27-.06A1.94,1.94,0,0,0,46.74,50.43Zm-.06,4c-.78,0-1.28-.63-1.28-1.75s.54-1.79,1.29-1.79S48,51.58,48,52.63,47.56,54.42,46.68,54.42Z"/><polygon class="cls-4" points="50.19 51.01 50.35 51.45 51.45 51.05 51.46 51.05 51.46 54.8 52.29 54.8 52.29 50.51 51.56 50.51 50.19 51.01"/><path class="cls-4" d="M55.92,54.78c0-.25-.1-.5-.16-.75a2,2,0,0,1-.41-1.36s0-.05,0-.08c-.15-.43-.31-.85-.5-1.27a2.42,2.42,0,0,0-.36,1.34A2,2,0,0,0,55.92,54.78Z"/><path class="cls-4" d="M28.86,61.2a3.24,3.24,0,0,0,.07-.66,2.22,2.22,0,0,0-.58-1.63A13.77,13.77,0,0,0,28.86,61.2Z"/><path class="cls-4" d="M31.82,58.37a2.06,2.06,0,0,0-2.19,2.23,2.14,2.14,0,1,0,4.28-.06A2,2,0,0,0,31.82,58.37Zm-.06,4c-.77,0-1.28-.63-1.28-1.75s.54-1.79,1.29-1.79,1.28.7,1.28,1.75S32.63,62.36,31.76,62.36Z"/><polygon class="cls-4" points="37.36 62.74 37.36 58.44 36.64 58.44 35.26 58.94 35.43 59.38 36.52 58.98 36.54 58.98 36.54 62.74 37.36 62.74"/><path class="cls-4" d="M41.77,58.37a2.06,2.06,0,0,0-2.19,2.23,2.14,2.14,0,1,0,4.27-.06A1.94,1.94,0,0,0,41.77,58.37Zm-.06,4c-.78,0-1.28-.63-1.28-1.75s.54-1.79,1.29-1.79,1.28.7,1.28,1.75S42.58,62.36,41.71,62.36Z"/><path class="cls-4" d="M46.74,58.37a2.06,2.06,0,0,0-2.19,2.23,2.14,2.14,0,1,0,4.27-.06A1.94,1.94,0,0,0,46.74,58.37Zm-.06,4c-.78,0-1.28-.63-1.28-1.75s.54-1.79,1.29-1.79,1.28.7,1.28,1.75S47.56,62.36,46.68,62.36Z"/><polygon class="cls-4" points="50.19 58.94 50.35 59.38 51.45 58.98 51.46 58.98 51.46 62.74 52.29 62.74 52.29 58.44 51.56 58.44 50.19 58.94"/><path class="cls-4" d="M55.16,58.94l.17.44.61-.22c0-.17,0-.35.07-.53Z"/><path class="cls-4" d="M31.82,66.3h-.06c.17.19.34.36.51.54a1.09,1.09,0,0,1,.56.55q.51.46,1.06.86A1.91,1.91,0,0,0,31.82,66.3Z"/><path class="cls-4" d="M36.79,66.3a2.06,2.06,0,0,0-2.19,2.23c0,.08,0,.15,0,.22q.45.29.93.55a2.81,2.81,0,0,1-.1-.77c0-1.17.54-1.79,1.29-1.79S38,67.45,38,68.51a1.78,1.78,0,0,1-.66,1.63c.23.09.46.15.7.23a2.16,2.16,0,0,0,.82-1.88A1.94,1.94,0,0,0,36.79,66.3Z"/><polygon class="cls-4" points="40.23 66.88 40.4 67.32 41.5 66.92 41.52 66.92 41.52 70.67 42.34 70.67 42.34 66.38 41.61 66.38 40.23 66.88"/><path class="cls-4" d="M46.74,66.3a2.28,2.28,0,0,0-1.08,4.23c.29-.07.56-.17.84-.26-.67-.09-1.1-.71-1.1-1.73s.54-1.79,1.29-1.79S48,67.45,48,68.51a2.21,2.21,0,0,1-.36,1.35c.37-.16.74-.33,1.09-.52a3.08,3.08,0,0,0,.12-.86A1.94,1.94,0,0,0,46.74,66.3Z"/><path class="cls-4" d="M50.19,66.88l.16.44,1.1-.4h0v.49c.29-.26.56-.53.82-.81v-.22h-.73Z"/></g></g></svg>