<svg id="Layer_1" data-name="Layer 1" xmlns="http://www.w3.org/2000/svg" viewBox="0 0 100 100"><defs><style>.cls-1{fill:#4acfe5;}.cls-2{fill:none;stroke:#4acfe5;stroke-miterlimit:10;stroke-width:5px;}</style></defs><title>rendimiento-disp</title><path class="cls-1" d="M50.18,47.27A5.77,5.77,0,0,0,61.1,49.91h0L71.69,30.85,53.13,42.23l0,0A5.77,5.77,0,0,0,50.18,47.27Z"/><path class="cls-1" d="M79.3,19.68a36.8,36.8,0,0,0-22.36-9v8.8a25,25,0,0,1,15.92,6.4Z"/><path class="cls-1" d="M83.43,44.53h8.79a35.4,35.4,0,0,0-9.34-21.86l-6.22,6.18A28.09,28.09,0,0,1,83.43,44.53Z"/><path class="cls-1" d="M27.32,47.24a26.57,26.57,0,0,0,1.26,8.12,26.84,26.84,0,0,0,3.56,7.33,56.77,56.77,0,0,0-11.39-3,35,35,0,0,1-1.65-6.18,35.37,35.37,0,0,1-.56-6.24,36.48,36.48,0,0,1,34-36.59v8.81C39.42,20.62,27.32,32.59,27.32,47.24Z"/><path class="cls-1" d="M92.28,48.9A37.27,37.27,0,0,1,55.45,83.85a37.11,37.11,0,0,1-18.67-5.05c3.31-2,3.49-5.31,3.49-7.85a1.64,1.64,0,0,0,0-.31A46.92,46.92,0,0,0,47.88,74a28.38,28.38,0,0,0,7.79,1.09A27.94,27.94,0,0,0,83.48,48.9Z"/><rect class="cls-2" x="4.82" y="61.76" width="34" height="34" rx="6.72" ry="6.72"/><path class="cls-1" d="M21.87,73.13a5.62,5.62,0,1,0,4,1.65A5.59,5.59,0,0,0,21.87,73.13Zm0,10.31a4.69,4.69,0,1,1,4.69-4.69A4.68,4.68,0,0,1,21.87,83.44Z"/><path class="cls-1" d="M31.7,76.41h-.89A1.35,1.35,0,0,1,29.47,75a1.27,1.27,0,0,1,.44-1l.57-.56a1.44,1.44,0,0,0,0-2l-1.31-1.29a1.49,1.49,0,0,0-2,0l-.55.55a1.35,1.35,0,0,1-1,.45,1.38,1.38,0,0,1-1.39-1.33V69a1.44,1.44,0,0,0-1.41-1.47H21A1.47,1.47,0,0,0,19.54,69v.89a1.36,1.36,0,0,1-1.37,1.33,1.32,1.32,0,0,1-1-.43l-.57-.56a1.44,1.44,0,0,0-1-.41,1.48,1.48,0,0,0-1,.41l-1.31,1.29a1.44,1.44,0,0,0,0,2l.55.55a1.29,1.29,0,0,1,.46,1,1.35,1.35,0,0,1-1.34,1.36h-.89a1.47,1.47,0,0,0-1.48,1.45v1.78a1.48,1.48,0,0,0,1.48,1.45h.89a1.35,1.35,0,0,1,1.34,1.36,1.31,1.31,0,0,1-.46,1l-.55.54a1.44,1.44,0,0,0,0,2l1.31,1.3a1.44,1.44,0,0,0,1,.41,1.48,1.48,0,0,0,1-.41l.57-.56a1.29,1.29,0,0,1,1-.43,1.36,1.36,0,0,1,1.37,1.33v.89A1.47,1.47,0,0,0,21,90h1.78a1.48,1.48,0,0,0,1.46-1.47v-.89a1.35,1.35,0,0,1,2.35-.88l.55.55a1.49,1.49,0,0,0,2,0L30.48,86a1.45,1.45,0,0,0,0-2l-.57-.56a1.32,1.32,0,0,1-.44-1,1.38,1.38,0,0,1,1.34-1.38h.89a1.34,1.34,0,0,0,1.36-1.4V77.86A1.39,1.39,0,0,0,31.7,76.41Zm.44,2.34v.88a.42.42,0,0,1-.43.46h-.89a2.25,2.25,0,0,0-1.61.7,2.32,2.32,0,0,0-.66,1.63,2.21,2.21,0,0,0,.73,1.65l.56.55a.52.52,0,0,1,0,.72l-1.31,1.3a.54.54,0,0,1-.37.14.53.53,0,0,1-.37-.14l-.53-.53A2.28,2.28,0,0,0,24,86a2.22,2.22,0,0,0-.68,1.61v.89a.54.54,0,0,1-.52.53H21a.53.53,0,0,1-.51-.53v-.89A2.23,2.23,0,0,0,19.8,86a2.33,2.33,0,0,0-1.62-.66,2.25,2.25,0,0,0-1.65.73l-.54.54a.54.54,0,0,1-.37.14.5.5,0,0,1-.36-.13h0L14,85.35a.51.51,0,0,1,0-.71l.53-.53a2.26,2.26,0,0,0,.08-3.27A2.22,2.22,0,0,0,13,80.16h-.9a.55.55,0,0,1-.54-.52V77.86a.55.55,0,0,1,.54-.52h.89a2.22,2.22,0,0,0,1.61-.67,2.29,2.29,0,0,0,.66-1.61,2.24,2.24,0,0,0-.74-1.66l-.54-.53a.49.49,0,0,1-.15-.36.5.5,0,0,1,.15-.36l1.3-1.29a.54.54,0,0,1,.37-.14.5.5,0,0,1,.36.13h0l.55.55a2.22,2.22,0,0,0,1.65.73,2.32,2.32,0,0,0,1.62-.66,2.23,2.23,0,0,0,.69-1.61V69a.53.53,0,0,1,.5-.53h1.79a.51.51,0,0,1,.47.53v.89a2.25,2.25,0,0,0,.7,1.61,2.34,2.34,0,0,0,1.63.66,2.29,2.29,0,0,0,1.67-.74l.53-.53a.54.54,0,0,1,.37-.14.56.56,0,0,1,.37.13l1.31,1.29a.51.51,0,0,1,.15.36.51.51,0,0,1-.15.36l-.56.55a2.23,2.23,0,0,0-.73,1.65,2.27,2.27,0,0,0,.66,1.6,2.22,2.22,0,0,0,1.61.67h.89c.32,0,.43.29.44.53v.88Z"/></svg>