<svg id="Layer_1" data-name="Layer 1" xmlns="http://www.w3.org/2000/svg" viewBox="0 0 100 100"><defs><style>.cls-1{fill:#4acfe5;}.cls-2{fill:#fff;}.cls-3{fill:none;stroke:#4acfe5;stroke-miterlimit:10;stroke-width:2px;}</style></defs><title>replicacion</title><g id="data"><path class="cls-1" d="M77.25,55.25c6.78,0,13.6-1.52,16.43-4.43V56c0,3.38-7.35,6.12-16.43,6.12S60.82,59.36,60.82,56c0,0,0,0,0,0h0V50.82C63.65,53.73,70.48,55.25,77.25,55.25ZM89.57,58a1.37,1.37,0,1,0-1.36-1.37A1.37,1.37,0,0,0,89.57,58Z"/><path class="cls-1" d="M89.57,47a1.37,1.37,0,1,1-1.36,1.36A1.36,1.36,0,0,1,89.57,47Z"/><path class="cls-2" d="M89.57,55.25a1.37,1.37,0,1,1-1.36,1.37A1.37,1.37,0,0,1,89.57,55.25Z"/><path class="cls-1" d="M89.57,63.46a1.37,1.37,0,1,1-1.36,1.37A1.37,1.37,0,0,1,89.57,63.46Z"/><path class="cls-1" d="M77.25,44.3c9.08,0,16.43-2.76,16.43-6.16S86.33,32,77.25,32s-16.43,2.75-16.43,6.16S68.18,44.3,77.25,44.3ZM96.42,64.15c0,6.11-9.94,8.9-19.17,8.9s-19.16-2.79-19.16-8.9v-26c0-6.12,9.93-8.9,19.16-8.9S96.42,32,96.42,38.14Zm-2.74,0V59C90.85,62,84,63.46,77.25,63.46S63.65,62,60.82,59v5.12c0,3.4,7.36,6.16,16.43,6.16S93.68,67.55,93.68,64.15Zm0-8.22V50.82c-2.83,2.91-9.65,4.43-16.43,4.43s-13.6-1.52-16.43-4.43v5.11h0s0,0,0,0c0,3.38,7.36,6.12,16.43,6.12S93.68,59.36,93.68,56Zm0-12.91c-3.59,2.73-10.16,4-16.43,4s-12.84-1.29-16.43-4v4.7h0v0c0,3.38,7.36,6.12,16.43,6.12s16.43-2.74,16.43-6.12V43Z"/></g><g id="data-2" data-name="data"><path class="cls-1" d="M7.49,59c2.83,2.92,9.65,4.43,16.43,4.43S37.52,62,40.35,59v5.12c0,3.4-7.36,6.16-16.43,6.16S7.49,67.55,7.49,64.15Zm4.11,4.43A1.37,1.37,0,1,0,13,64.83,1.37,1.37,0,0,0,11.6,63.46Z"/><path class="cls-1" d="M10.23,48.4A1.37,1.37,0,1,0,11.6,47,1.37,1.37,0,0,0,10.23,48.4ZM7.49,43c3.59,2.73,10.17,4,16.43,4s12.84-1.29,16.43-4v4.7h0v0c0,3.38-7.36,6.12-16.43,6.12S7.49,51.14,7.49,47.76v0h0Z"/><path class="cls-2" d="M11.6,47a1.37,1.37,0,1,1-1.37,1.36A1.37,1.37,0,0,1,11.6,47Z"/><path class="cls-1" d="M11.6,55.25a1.37,1.37,0,1,1-1.37,1.37A1.37,1.37,0,0,1,11.6,55.25Z"/><path class="cls-2" d="M11.6,63.46a1.37,1.37,0,1,1-1.37,1.37A1.38,1.38,0,0,1,11.6,63.46Z"/><path class="cls-1" d="M40.35,38.14C40.35,34.73,33,32,23.92,32S7.49,34.73,7.49,38.14s7.36,6.16,16.43,6.16S40.35,41.54,40.35,38.14ZM23.92,70.31c9.07,0,16.43-2.76,16.43-6.16V59C37.52,62,30.7,63.46,23.92,63.46S10.32,62,7.49,59v5.12C7.49,67.55,14.85,70.31,23.92,70.31Zm19.17-6.16c0,6.11-9.94,8.9-19.17,8.9S4.75,70.26,4.75,64.15v-26c0-6.12,9.94-8.9,19.17-8.9S43.09,32,43.09,38.14ZM40.35,43c-3.59,2.73-10.17,4-16.43,4S11.08,45.75,7.49,43v4.7h0v0c0,3.38,7.36,6.12,16.43,6.12s16.43-2.74,16.43-6.12v0h0Zm0,7.8c-2.83,2.91-9.65,4.43-16.43,4.43s-13.6-1.52-16.43-4.43v5.11h0s0,0,0,0c0,3.38,7.36,6.12,16.43,6.12S40.35,59.36,40.35,56c0,0,0,0,0,0h0Z"/></g><line class="cls-3" x1="46.95" y1="45.88" x2="59.92" y2="45.88"/><polygon class="cls-1" points="50.94 49.27 47.54 45.88 50.94 42.48 48.06 42.48 44.67 45.88 48.06 49.27 50.94 49.27"/><line class="cls-2" x1="56.92" y1="63.25" x2="41.67" y2="63.25"/><line class="cls-3" x1="54.63" y1="63.25" x2="41.67" y2="63.25"/><polygon class="cls-1" points="50.65 59.86 54.04 63.25 50.65 66.64 53.53 66.64 56.92 63.25 53.53 59.86 50.65 59.86"/></svg>