<svg id="Layer_1" data-name="Layer 1" xmlns="http://www.w3.org/2000/svg" viewBox="0 0 100 100"><defs><style>.cls-1{fill:#4acfe5;}.cls-2,.cls-3,.cls-4,.cls-5,.cls-6{fill:none;stroke:#4acfe5;stroke-miterlimit:10;}.cls-2,.cls-6{stroke-linecap:round;}.cls-2,.cls-3{stroke-width:4px;}.cls-4,.cls-6{stroke-width:2px;}</style></defs><title>respaldo</title><path id="path8" class="cls-1" d="M64.59,87.38a21.45,21.45,0,0,1-6.9-6.2c-3.74-5.14-5-11.5-4.81-17.73v-.09l0-.09a2.69,2.69,0,0,1,2.34-2.46,20.91,20.91,0,0,0,4.47-1.13,33,33,0,0,0,4.93-2.31,2.64,2.64,0,0,1,2.68,0,33.31,33.31,0,0,0,5,2.31,20,20,0,0,0,4.47,1.13,2.74,2.74,0,0,1,2.34,2.65C79.22,69.68,78,76,74.29,81.18a22.09,22.09,0,0,1-6.9,6.2,2.72,2.72,0,0,1-2.8,0Zm12.5-23.91a.69.69,0,0,0-.61-.7,25.09,25.09,0,0,1-4.9-1.22,35.81,35.81,0,0,1-5.23-2.46.78.78,0,0,0-.73,0,34.37,34.37,0,0,1-5.23,2.46,24.81,24.81,0,0,1-4.87,1.22.75.75,0,0,0-.64.7Q54.66,73.56,59.3,80a19.49,19.49,0,0,0,6.33,5.66.64.64,0,0,0,.73,0A20.2,20.2,0,0,0,72.68,80q4.65-6.43,4.41-16.51Z"/><line class="cls-2" x1="60.5" y1="20.26" x2="40.17" y2="20.26"/><path class="cls-2" d="M28.83,20.26H26c-6.9,0-10.36,4.94-11.61,11.48a13.92,13.92,0,0,0-.26,2.68V77.85A14.16,14.16,0,0,0,28.29,92H71.71A14.16,14.16,0,0,0,85.87,77.85V34.42a13.92,13.92,0,0,0-.26-2.68c-1.25-6.54-4.79-11.48-11.69-11.48H71.58"/><polyline class="cls-3" points="85.18 31.74 58.08 31.74 14.13 31.74"/><rect class="cls-4" x="32.12" y="13.51" width="4.63" height="13.5" rx="1.75" ry="1.75"/><rect class="cls-4" x="63.77" y="13.51" width="4.43" height="13.5" rx="1.83" ry="1.83"/><rect class="cls-5" x="20.33" y="39.33" width="32.53" height="5.33"/><line class="cls-6" x1="20.33" y1="51.67" x2="42.67" y2="51.67"/><line class="cls-6" x1="20.33" y1="56.81" x2="47.67" y2="56.81"/><line class="cls-6" x1="20.33" y1="62.33" x2="34.43" y2="62.33"/><line class="cls-6" x1="20.33" y1="67.85" x2="36.54" y2="67.85"/><line class="cls-6" x1="20.33" y1="73" x2="40.17" y2="73"/><line class="cls-6" x1="20.33" y1="78.52" x2="30.57" y2="78.52"/></svg>