<svg id="Layer_1" data-name="Layer 1" xmlns="http://www.w3.org/2000/svg" viewBox="0 0 100 100"><defs><style>.cls-1{fill:#4acfe5;}.cls-2,.cls-3{fill:none;stroke:#4acfe5;stroke-miterlimit:10;}.cls-2{stroke-width:2px;}</style></defs><title>respaldo-datos</title><path id="path8" class="cls-1" d="M47.58,17.44a4.49,4.49,0,0,0-3.84-4.34,33,33,0,0,1-7.33-1.84,54.46,54.46,0,0,1-8.12-3.79,4.32,4.32,0,0,0-4.39,0,54.49,54.49,0,0,1-8.08,3.79A34.24,34.24,0,0,1,8.49,13.1a4.41,4.41,0,0,0-3.84,4l0,.15v.15c-.25,10.22,1.75,20.65,7.88,29.07A34.85,34.85,0,0,0,22,55.58v-4a31.05,31.05,0,0,1-6.88-7Q7.5,34,7.89,17.49a1.22,1.22,0,0,1,1.05-1.14,40.72,40.72,0,0,0,8-2,56.17,56.17,0,0,0,8.57-4,1.27,1.27,0,0,1,1.2,0,58.08,58.08,0,0,0,8.58,4,40.92,40.92,0,0,0,8,2,1.13,1.13,0,0,1,1,1.14,54.21,54.21,0,0,1-1.5,14.6h3.36A58.49,58.49,0,0,0,47.58,17.44ZM33.08,49.09h4.55a32.47,32.47,0,0,0,2.07-2.58l.47-.66H36.08A29.74,29.74,0,0,1,33.08,49.09Z"/><polyline class="cls-2" points="68.49 79.85 22 79.85 22 66.09 68.49 66.09"/><polyline class="cls-2" points="78.01 55.97 78.01 49.09 37.63 49.09 33.08 49.09 22 49.09 22 51.56 22 55.58 22 62.85 68.49 62.85"/><polyline class="cls-2" points="36.08 45.85 22 45.85 22 32.09 42.79 32.09"/><polyline class="cls-2" points="42.67 32.09 78.01 32.09 78.01 45.85 36 45.85"/><polyline class="cls-3" points="68.49 82.94 62.73 82.94 75.83 92.05 88.93 82.94 83.19 82.94 83.19 55.97 68.49 55.97 68.49 80.71"/></svg>