<svg id="Layer_1" data-name="Layer 1" xmlns="http://www.w3.org/2000/svg" viewBox="0 0 100 100"><defs><style>.cls-1{fill:#4acfe5;}</style></defs><title>seg-cumplimiento</title><path id="path8" class="cls-1" d="M39.52,89.06A45.77,45.77,0,0,1,24.78,75.81c-8-11-10.58-24.54-10.26-37.85v-.19l.06-.2a5.74,5.74,0,0,1,5-5.26,44.63,44.63,0,0,0,9.54-2.4A70.41,70.41,0,0,0,39.64,25a5.63,5.63,0,0,1,5.71,0,71.1,71.1,0,0,0,10.58,4.93,42.76,42.76,0,0,0,9.54,2.4,5.85,5.85,0,0,1,5,5.65c.26,13.31-2.27,26.88-10.26,37.85A47.15,47.15,0,0,1,45.49,89.06a5.8,5.8,0,0,1-6,0ZM66.2,38a1.48,1.48,0,0,0-1.3-1.49,53.55,53.55,0,0,1-10.45-2.6,76.44,76.44,0,0,1-11.17-5.26,1.66,1.66,0,0,0-1.56,0,73.36,73.36,0,0,1-11.17,5.26,53,53,0,0,1-10.39,2.6A1.6,1.6,0,0,0,18.81,38q-.49,21.52,9.41,35.25a41.61,41.61,0,0,0,13.5,12.08,1.37,1.37,0,0,0,1.56,0,43.12,43.12,0,0,0,13.5-12.08Q66.72,59.55,66.2,38Z"/><path class="cls-1" d="M73.92,27.65A3,3,0,0,0,79.63,29h0l5.52-10L75.46,25h0A3,3,0,0,0,73.92,27.65Z"/><path class="cls-1" d="M89.13,13.24a19.22,19.22,0,0,0-11.68-4.7v4.6a13,13,0,0,1,8.31,3.34Z"/><path class="cls-1" d="M91.29,26.22h4.59A18.49,18.49,0,0,0,91,14.8L87.76,18A14.67,14.67,0,0,1,91.29,26.22Z"/><path class="cls-1" d="M62,27.63a13.88,13.88,0,0,0,.66,4.24A14,14,0,0,0,64.5,35.7a29.65,29.65,0,0,0-6-1.56,18.28,18.28,0,0,1-.86-3.23,18.47,18.47,0,0,1-.29-3.26A19.05,19.05,0,0,1,75.16,8.54v4.6A14.85,14.85,0,0,0,62,27.63Z"/><path class="cls-1" d="M95.91,28.5A19.46,19.46,0,0,1,76.67,46.75a19.38,19.38,0,0,1-9.75-2.64c1.73-1.06,2.72-2.29,2.72-3.62a.86.86,0,0,0,0-.16,14.48,14.48,0,0,0,3.09,1.28,14.82,14.82,0,0,0,4.07.57A14.59,14.59,0,0,0,91.31,28.5Z"/></svg>