<svg id="Layer_1" data-name="Layer 1" xmlns="http://www.w3.org/2000/svg" viewBox="0 0 100 100"><defs><style>.cls-1{fill:#4acfe5;}.cls-2{fill:none;stroke:#4acfe5;stroke-miterlimit:10;stroke-width:1.81px;}</style></defs><title>seg-hibrida</title><path id="path8" class="cls-1" d="M46.38,88.88a55.59,55.59,0,0,1-17.9-16.08C18.78,59.47,15.63,43,16,26.83V26.6l.08-.24A7,7,0,0,1,22.17,20a54.19,54.19,0,0,0,11.59-2.92,85.5,85.5,0,0,0,12.77-6,6.84,6.84,0,0,1,6.94,0,86.34,86.34,0,0,0,12.85,6A51.92,51.92,0,0,0,77.91,20,7.1,7.1,0,0,1,84,26.83c.32,16.16-2.76,32.64-12.46,46a57.26,57.26,0,0,1-17.9,16.08,7,7,0,0,1-7.25,0Zm32.4-62A1.8,1.8,0,0,0,77.2,25.1a65,65,0,0,1-12.69-3.15A92.83,92.83,0,0,1,51,15.56a2,2,0,0,0-1.89,0A89.08,89.08,0,0,1,35.5,21.94,64.3,64.3,0,0,1,22.88,25.1a1.94,1.94,0,0,0-1.65,1.81Q20.64,53,32.66,69.72a50.53,50.53,0,0,0,16.4,14.67,1.67,1.67,0,0,0,1.89,0,52.36,52.36,0,0,0,16.4-14.67Q79.41,53,78.78,26.91Z"/><polygon class="cls-2" points="49.96 32.54 35.72 57.22 64.21 57.22 49.96 32.54"/><circle class="cls-1" cx="49.96" cy="32.39" r="3.55"/><circle class="cls-1" cx="65.01" cy="57.22" r="3.55"/><circle class="cls-1" cx="34.99" cy="57.22" r="3.55"/></svg>