<svg id="Layer_1" data-name="Layer 1" xmlns="http://www.w3.org/2000/svg" viewBox="0 0 100 100"><defs><style>.cls-1{fill:#4acfe5;}.cls-2{fill:none;stroke:#4acfe5;stroke-miterlimit:10;stroke-width:4px;}</style></defs><title>seguridad-nube</title><path class="cls-1" d="M54.5,66.89h-20a2.5,2.5,0,0,1-2.5-2.5V51.87a2.5,2.5,0,0,1,2.5-2.5h1.25V45.61a8.75,8.75,0,1,1,17.5,0v3.76H54.5a2.5,2.5,0,0,1,2.5,2.5V64.39A2.5,2.5,0,0,1,54.5,66.89Zm-5-21.28a5,5,0,0,0-10,0v3.76h10Z"/><path class="cls-2" d="M5.75,61.06A22.13,22.13,0,0,0,27.87,83.19H72.12a22.13,22.13,0,1,0,0-44.25c-.19,0-.37,0-.56,0a27.65,27.65,0,0,0-54.63,2.87A22.1,22.1,0,0,0,5.75,61.06Z"/></svg>