<svg id="Layer_1" data-name="Layer 1" xmlns="http://www.w3.org/2000/svg" viewBox="0 0 100 100"><defs><style>.cls-1{fill:#4acfe5;}.cls-2,.cls-3{fill:none;stroke:#4acfe5;stroke-width:2px;}.cls-2{stroke-miterlimit:10;}.cls-3{stroke-linecap:round;stroke-miterlimit:5;}</style></defs><title>sistemas</title><circle class="cls-1" cx="26.04" cy="26.04" r="3.85"/><circle class="cls-1" cx="73.96" cy="26.04" r="3.85"/><path class="cls-2" d="M70.5,33.3A8,8,0,1,0,65.92,26a7.79,7.79,0,0,0,.41,2.52"/><circle class="cls-1" cx="26.04" cy="73.13" r="3.85"/><path class="cls-2" d="M33.56,70.24A8.05,8.05,0,1,1,26,65.08a8.22,8.22,0,0,1,3.14.63"/><circle class="cls-1" cx="73.96" cy="73.13" r="3.85"/><path class="cls-2" d="M81.39,76.25h0A7.9,7.9,0,0,0,82,73.12a8.05,8.05,0,1,0-8.05,8,8.18,8.18,0,0,0,2.39-.36"/><path class="cls-3" d="M92,88.82a8.45,8.45,0,0,0,1.13-4.24V15.42a8.55,8.55,0,0,0-8.55-8.55H39.09L33.63,19.42l-.85,1.7c1.09,1.09,1.31,3.11,1.31,4.92A8.05,8.05,0,0,1,18,26a7.49,7.49,0,0,1,7.61-7.82c.13,0,.48,0,.54-.22l.28-.53L32,6.87H15.42a8.54,8.54,0,0,0-8.54,8.55V84.58a8.54,8.54,0,0,0,8.54,8.55H84.58a8.65,8.65,0,0,0,2-.23"/><line class="cls-3" x1="66.33" y1="28.56" x2="29.18" y2="65.71"/><line class="cls-3" x1="70.5" y1="33.3" x2="33.56" y2="70.24"/><line class="cls-3" x1="86.56" y1="92.9" x2="76.36" y2="80.81"/><polyline class="cls-3" points="81.39 76.24 81.39 76.25 92 88.82"/></svg>