<svg id="Layer_1" data-name="Layer 1" xmlns="http://www.w3.org/2000/svg" viewBox="0 0 100 100"><defs><style>.cls-1{fill:none;stroke:#4acfe5;stroke-linecap:round;stroke-miterlimit:10;stroke-width:4px;}.cls-2{fill:#4acfe5;}</style></defs><title>sistema-nube</title><path class="cls-1" d="M73.74,49.06a19.73,19.73,0,0,0-6.3-1.33"/><path class="cls-1" d="M81.94,54.94a20.22,20.22,0,0,1-15.5,33.22H26A20.23,20.23,0,0,1,16,50.35,25.28,25.28,0,0,1,51.73,29.79,25,25,0,0,1,58.15,34"/><rect class="cls-2" x="42.47" y="41.95" width="11.15" height="22.69"/><rect class="cls-2" x="61.16" y="33.19" width="11.15" height="31.45"/><polyline class="cls-2" points="91 22.86 95.37 22.86 85.44 8.75 75.51 22.86 79.86 22.86 79.86 64.64 91 64.64 91 26.32"/></svg>