<svg id="Layer_1" data-name="Layer 1" xmlns="http://www.w3.org/2000/svg" viewBox="0 0 100 100"><defs><style>.cls-1{fill:none;stroke:#4acfe5;stroke-linecap:round;stroke-miterlimit:10;stroke-width:4px;}.cls-2{fill:#4acfe5;}</style></defs><title>sostema-convergente</title><path class="cls-1" d="M19.75,22.5a27.65,27.65,0,0,1,49.13-.62"/><line class="cls-1" x1="16.94" y1="32.26" x2="16.94" y2="32.25"/><path class="cls-1" d="M41.34,53.49V67.94a5.67,5.67,0,0,1-5.67,5.67H28.4c-12.08,0-22.33-9.47-22.64-21.55a22.12,22.12,0,0,1,11.18-19.8h0"/><polygon class="cls-2" points="34.56 61.46 41.34 54.67 48.12 61.46 48.12 55.7 41.34 48.92 34.56 55.7 34.56 61.46"/><path class="cls-1" d="M50.67,89.34V78.51a4.91,4.91,0,0,1,4.91-4.91h16c12,0,22.22-9.33,22.64-21.33A22.12,22.12,0,0,0,72.13,29.36c-.19,0-.37,0-.55,0"/><polygon class="cls-2" points="57.45 81.38 50.67 88.16 43.89 81.38 43.89 87.14 50.67 93.92 57.45 87.14 57.45 81.38"/></svg>