<svg id="Layer_1" data-name="Layer 1" xmlns="http://www.w3.org/2000/svg" viewBox="0 0 100 100"><defs><style>.cls-1{fill:#4acfe5;}</style></defs><title>usuarios</title><path id="path8" class="cls-1" d="M76,43.58a21.63,21.63,0,0,1-6.92-6.22c-3.75-5.15-5-11.52-4.82-17.77V19.5l0-.1a2.7,2.7,0,0,1,2.35-2.46,21.17,21.17,0,0,0,4.48-1.13,32.22,32.22,0,0,0,4.94-2.32,2.63,2.63,0,0,1,2.68,0,33.45,33.45,0,0,0,5,2.32,20.58,20.58,0,0,0,4.48,1.13,2.74,2.74,0,0,1,2.35,2.65c.12,6.25-1.07,12.62-4.82,17.77a22.06,22.06,0,0,1-6.92,6.22,2.71,2.71,0,0,1-2.8,0Zm12.53-24a.7.7,0,0,0-.61-.7A25.55,25.55,0,0,1,83,17.7a35.88,35.88,0,0,1-5.24-2.47.79.79,0,0,0-.73,0,34.11,34.11,0,0,1-5.25,2.47,25.17,25.17,0,0,1-4.87,1.22.74.74,0,0,0-.64.7Q66,29.72,70.7,36.17A19.39,19.39,0,0,0,77,41.84a.65.65,0,0,0,.73,0,20.19,20.19,0,0,0,6.34-5.67c3.11-4.3,4.57-9.82,4.42-16.55Z"/><path class="cls-1" d="M55.08,70.32a65.84,65.84,0,0,1-.14-6.67c1.16-.61,3.23-4.49,3.58-7.76.91-.08,2.35-1,2.77-4.47a3.28,3.28,0,0,0-1.22-3.28c1.48-4.46,4.56-18.24-5.7-19.67-1-1.85-3.75-2.79-7.27-2.79-14,.26-15.74,10.61-12.66,22.46a3.26,3.26,0,0,0-1.22,3.28c.42,3.51,1.85,4.39,2.76,4.47.35,3.27,2.51,7.15,3.67,7.76a65.84,65.84,0,0,1-.14,6.67C36.73,77.8,18,75.7,17.11,90.11H77.4C76.54,75.7,57.86,77.8,55.08,70.32Z"/><path class="cls-1" d="M80.79,33.64H74a.85.85,0,0,1-.85-.85V28.55A.85.85,0,0,1,74,27.7h.43V26.42a3,3,0,1,1,5.93,0V27.7h.42a.85.85,0,0,1,.85.85v4.24A.85.85,0,0,1,80.79,33.64ZM79.1,26.42a1.7,1.7,0,0,0-3.39,0V27.7H79.1Z"/></svg>